# xmcd CD database file
#
# Track frame offsets:
#	150
#	14487
#	27772
#	39120
#	52122
#	64257
#	77495
#	89185
#	102717
#	114230
#	126930
#	138132
#	152975
#	167337
#	182240
#	195455
#	218692
#
# Disc length: 3082 seconds
#
# Revision: 2
# Processed by: cddbd v1.5.2PL0 Copyright (c) Steve Scherf et al.
# Submitted via: CDex 1.51
#
DISCID=e50c0811
DTITLE=Muddy Waters - The Best Of Muddy Waters Vol. 2
DYEAR=1996
DGENRE=Blues
TTITLE0=I Feel Like Going Home
TTITLE1=Mannish Boy
TTITLE2=Sugar Sweet
TTITLE3=40 Days And 40 Nights
TTITLE4=Trouble No More
TTITLE5=Don't Go No Further
TTITLE6=You're Gonna Miss Me
TTITLE7=Rollin' And Tumblin' Part 1
TTITLE8=Rollin' And Tumblin' Part 2
TTITLE9=Appealing Blues (a.k.a. Hello Little Girl)
TTITLE10=She's Alright
TTITLE11=Baby Please Don't Go
TTITLE12=Blow Wind Blow
TTITLE13=She's Nineteen Years Old
TTITLE14=I Feel So Good
TTITLE15=Got My Mojo Working, Part 2
TTITLE16=Can't Get No Grindin' (What's The Matter With The Meal)
EXTD=YEAR: 1996
EXTT0=
EXTT1=
EXTT2=
EXTT3=
EXTT4=
EXTT5=
EXTT6=
EXTT7=
EXTT8=
EXTT9=
EXTT10=
EXTT11=
EXTT12=
EXTT13=
EXTT14=
EXTT15=
EXTT16=
PLAYORDER=
